<?xml version="1.0" encoding="utf-8" standalone="no"?>
<!DOCTYPE svg PUBLIC "-//W3C//DTD SVG 1.1//EN"
  "http://www.w3.org/Graphics/SVG/1.1/DTD/svg11.dtd">
<!-- Created with matplotlib (https://matplotlib.org/) -->
<svg height="345.6pt" version="1.1" viewBox="0 0 460.8 345.6" width="460.8pt" xmlns="http://www.w3.org/2000/svg" xmlns:xlink="http://www.w3.org/1999/xlink">
 <defs>
  <style type="text/css">
*{stroke-linecap:butt;stroke-linejoin:round;}
  </style>
 </defs>
 <g id="figure_1">
  <g id="patch_1">
   <path d="M 0 345.6 
L 460.8 345.6 
L 460.8 0 
L 0 0 
z
" style="fill:#ffffff;"/>
  </g>
  <g id="axes_1">
   <g id="patch_2">
    <path d="M 49.39 317.72 
L 450 317.72 
L 450 10.8 
L 49.39 10.8 
z
" style="fill:#ffffff;"/>
   </g>
   <g id="patch_3">
    <path clip-path="url(#p2fd8c630d7)" d="M 67.599545 317.72 
L 70.518911 317.72 
L 70.518911 25.415238 
L 67.599545 25.415238 
z
" style="fill:#1f77b4;"/>
   </g>
   <g id="patch_4">
    <path clip-path="url(#p2fd8c630d7)" d="M 71.248753 317.72 
L 74.168119 317.72 
L 74.168119 48.516185 
L 71.248753 48.516185 
z
" style="fill:#1f77b4;"/>
   </g>
   <g id="patch_5">
    <path clip-path="url(#p2fd8c630d7)" d="M 74.89796 317.72 
L 77.817326 317.72 
L 77.817326 80.000717 
L 74.89796 80.000717 
z
" style="fill:#1f77b4;"/>
   </g>
   <g id="patch_6">
    <path clip-path="url(#p2fd8c630d7)" d="M 78.547168 317.72 
L 81.466534 317.72 
L 81.466534 123.467069 
L 78.547168 123.467069 
z
" style="fill:#1f77b4;"/>
   </g>
   <g id="patch_7">
    <path clip-path="url(#p2fd8c630d7)" d="M 82.196375 317.72 
L 85.115741 317.72 
L 85.115741 145.130197 
L 82.196375 145.130197 
z
" style="fill:#1f77b4;"/>
   </g>
   <g id="patch_8">
    <path clip-path="url(#p2fd8c630d7)" d="M 85.845583 317.72 
L 88.764949 317.72 
L 88.764949 153.440049 
L 85.845583 153.440049 
z
" style="fill:#1f77b4;"/>
   </g>
   <g id="patch_9">
    <path clip-path="url(#p2fd8c630d7)" d="M 89.49479 317.72 
L 92.414156 317.72 
L 92.414156 179.954892 
L 89.49479 179.954892 
z
" style="fill:#1f77b4;"/>
   </g>
   <g id="patch_10">
    <path clip-path="url(#p2fd8c630d7)" d="M 93.143998 317.72 
L 96.063364 317.72 
L 96.063364 202.982104 
L 93.143998 202.982104 
z
" style="fill:#1f77b4;"/>
   </g>
   <g id="patch_11">
    <path clip-path="url(#p2fd8c630d7)" d="M 96.793206 317.72 
L 99.712572 317.72 
L 99.712572 210.178569 
L 96.793206 210.178569 
z
" style="fill:#1f77b4;"/>
   </g>
   <g id="patch_12">
    <path clip-path="url(#p2fd8c630d7)" d="M 100.442413 317.72 
L 103.361779 317.72 
L 103.361779 232.431571 
L 100.442413 232.431571 
z
" style="fill:#1f77b4;"/>
   </g>
   <g id="patch_13">
    <path clip-path="url(#p2fd8c630d7)" d="M 104.091621 317.72 
L 107.010987 317.72 
L 107.010987 235.100752 
L 104.091621 235.100752 
z
" style="fill:#1f77b4;"/>
   </g>
   <g id="patch_14">
    <path clip-path="url(#p2fd8c630d7)" d="M 107.740828 317.72 
L 110.660194 317.72 
L 110.660194 239.480567 
L 107.740828 239.480567 
z
" style="fill:#1f77b4;"/>
   </g>
   <g id="patch_15">
    <path clip-path="url(#p2fd8c630d7)" d="M 111.390036 317.72 
L 114.309402 317.72 
L 114.309402 243.432724 
L 111.390036 243.432724 
z
" style="fill:#1f77b4;"/>
   </g>
   <g id="patch_16">
    <path clip-path="url(#p2fd8c630d7)" d="M 115.039243 317.72 
L 117.958609 317.72 
L 117.958609 262.596261 
L 115.039243 262.596261 
z
" style="fill:#1f77b4;"/>
   </g>
   <g id="patch_17">
    <path clip-path="url(#p2fd8c630d7)" d="M 118.688451 317.72 
L 121.607817 317.72 
L 121.607817 262.684742 
L 118.688451 262.684742 
z
" style="fill:#1f77b4;"/>
   </g>
   <g id="patch_18">
    <path clip-path="url(#p2fd8c630d7)" d="M 122.337658 317.72 
L 125.257024 317.72 
L 125.257024 265.405536 
L 122.337658 265.405536 
z
" style="fill:#1f77b4;"/>
   </g>
   <g id="patch_19">
    <path clip-path="url(#p2fd8c630d7)" d="M 125.986866 317.72 
L 128.906232 317.72 
L 128.906232 267.669178 
L 125.986866 267.669178 
z
" style="fill:#1f77b4;"/>
   </g>
   <g id="patch_20">
    <path clip-path="url(#p2fd8c630d7)" d="M 129.636073 317.72 
L 132.555439 317.72 
L 132.555439 267.765033 
L 129.636073 267.765033 
z
" style="fill:#1f77b4;"/>
   </g>
   <g id="patch_21">
    <path clip-path="url(#p2fd8c630d7)" d="M 133.285281 317.72 
L 136.204647 317.72 
L 136.204647 267.77978 
L 133.285281 267.77978 
z
" style="fill:#1f77b4;"/>
   </g>
   <g id="patch_22">
    <path clip-path="url(#p2fd8c630d7)" d="M 136.934488 317.72 
L 139.853854 317.72 
L 139.853854 276.458303 
L 136.934488 276.458303 
z
" style="fill:#1f77b4;"/>
   </g>
   <g id="patch_23">
    <path clip-path="url(#p2fd8c630d7)" d="M 140.583696 317.72 
L 143.503062 317.72 
L 143.503062 282.659355 
L 140.583696 282.659355 
z
" style="fill:#1f77b4;"/>
   </g>
   <g id="patch_24">
    <path clip-path="url(#p2fd8c630d7)" d="M 144.232903 317.72 
L 147.152269 317.72 
L 147.152269 283.109134 
L 144.232903 283.109134 
z
" style="fill:#1f77b4;"/>
   </g>
   <g id="patch_25">
    <path clip-path="url(#p2fd8c630d7)" d="M 147.882111 317.72 
L 150.801477 317.72 
L 150.801477 283.588407 
L 147.882111 283.588407 
z
" style="fill:#1f77b4;"/>
   </g>
   <g id="patch_26">
    <path clip-path="url(#p2fd8c630d7)" d="M 151.531318 317.72 
L 154.450684 317.72 
L 154.450684 284.362617 
L 151.531318 284.362617 
z
" style="fill:#1f77b4;"/>
   </g>
   <g id="patch_27">
    <path clip-path="url(#p2fd8c630d7)" d="M 155.180526 317.72 
L 158.099892 317.72 
L 158.099892 285.42439 
L 155.180526 285.42439 
z
" style="fill:#1f77b4;"/>
   </g>
   <g id="patch_28">
    <path clip-path="url(#p2fd8c630d7)" d="M 158.829733 317.72 
L 161.749099 317.72 
L 161.749099 287.407842 
L 158.829733 287.407842 
z
" style="fill:#1f77b4;"/>
   </g>
   <g id="patch_29">
    <path clip-path="url(#p2fd8c630d7)" d="M 162.478941 317.72 
L 165.398307 317.72 
L 165.398307 287.658539 
L 162.478941 287.658539 
z
" style="fill:#1f77b4;"/>
   </g>
   <g id="patch_30">
    <path clip-path="url(#p2fd8c630d7)" d="M 166.128148 317.72 
L 169.047514 317.72 
L 169.047514 287.901862 
L 166.128148 287.901862 
z
" style="fill:#1f77b4;"/>
   </g>
   <g id="patch_31">
    <path clip-path="url(#p2fd8c630d7)" d="M 169.777356 317.72 
L 172.696722 317.72 
L 172.696722 289.31756 
L 169.777356 289.31756 
z
" style="fill:#1f77b4;"/>
   </g>
   <g id="patch_32">
    <path clip-path="url(#p2fd8c630d7)" d="M 173.426563 317.72 
L 176.345929 317.72 
L 176.345929 291.691803 
L 173.426563 291.691803 
z
" style="fill:#1f77b4;"/>
   </g>
   <g id="patch_33">
    <path clip-path="url(#p2fd8c630d7)" d="M 177.075771 317.72 
L 179.995137 317.72 
L 179.995137 292.045728 
L 177.075771 292.045728 
z
" style="fill:#1f77b4;"/>
   </g>
   <g id="patch_34">
    <path clip-path="url(#p2fd8c630d7)" d="M 180.724978 317.72 
L 183.644344 317.72 
L 183.644344 294.626427 
L 180.724978 294.626427 
z
" style="fill:#1f77b4;"/>
   </g>
   <g id="patch_35">
    <path clip-path="url(#p2fd8c630d7)" d="M 184.374186 317.72 
L 187.293552 317.72 
L 187.293552 295.054086 
L 184.374186 295.054086 
z
" style="fill:#1f77b4;"/>
   </g>
   <g id="patch_36">
    <path clip-path="url(#p2fd8c630d7)" d="M 188.023393 317.72 
L 190.942759 317.72 
L 190.942759 296.565638 
L 188.023393 296.565638 
z
" style="fill:#1f77b4;"/>
   </g>
   <g id="patch_37">
    <path clip-path="url(#p2fd8c630d7)" d="M 191.672601 317.72 
L 194.591967 317.72 
L 194.591967 297.096525 
L 191.672601 297.096525 
z
" style="fill:#1f77b4;"/>
   </g>
   <g id="patch_38">
    <path clip-path="url(#p2fd8c630d7)" d="M 195.321808 317.72 
L 198.241174 317.72 
L 198.241174 297.605291 
L 195.321808 297.605291 
z
" style="fill:#1f77b4;"/>
   </g>
   <g id="patch_39">
    <path clip-path="url(#p2fd8c630d7)" d="M 198.971016 317.72 
L 201.890382 317.72 
L 201.890382 298.740799 
L 198.971016 298.740799 
z
" style="fill:#1f77b4;"/>
   </g>
   <g id="patch_40">
    <path clip-path="url(#p2fd8c630d7)" d="M 202.620223 317.72 
L 205.539589 317.72 
L 205.539589 300.960201 
L 202.620223 300.960201 
z
" style="fill:#1f77b4;"/>
   </g>
   <g id="patch_41">
    <path clip-path="url(#p2fd8c630d7)" d="M 206.269431 317.72 
L 209.188797 317.72 
L 209.188797 301.159283 
L 206.269431 301.159283 
z
" style="fill:#1f77b4;"/>
   </g>
   <g id="patch_42">
    <path clip-path="url(#p2fd8c630d7)" d="M 209.918638 317.72 
L 212.838004 317.72 
L 212.838004 302.346405 
L 209.918638 302.346405 
z
" style="fill:#1f77b4;"/>
   </g>
   <g id="patch_43">
    <path clip-path="url(#p2fd8c630d7)" d="M 213.567846 317.72 
L 216.487212 317.72 
L 216.487212 302.995267 
L 213.567846 302.995267 
z
" style="fill:#1f77b4;"/>
   </g>
   <g id="patch_44">
    <path clip-path="url(#p2fd8c630d7)" d="M 217.217053 317.72 
L 220.136419 317.72 
L 220.136419 304.580553 
L 217.217053 304.580553 
z
" style="fill:#1f77b4;"/>
   </g>
   <g id="patch_45">
    <path clip-path="url(#p2fd8c630d7)" d="M 220.866261 317.72 
L 223.785627 317.72 
L 223.785627 305.399004 
L 220.866261 305.399004 
z
" style="fill:#1f77b4;"/>
   </g>
   <g id="patch_46">
    <path clip-path="url(#p2fd8c630d7)" d="M 224.515468 317.72 
L 227.434834 317.72 
L 227.434834 305.716061 
L 224.515468 305.716061 
z
" style="fill:#1f77b4;"/>
   </g>
   <g id="patch_47">
    <path clip-path="url(#p2fd8c630d7)" d="M 228.164676 317.72 
L 231.084042 317.72 
L 231.084042 305.841409 
L 228.164676 305.841409 
z
" style="fill:#1f77b4;"/>
   </g>
   <g id="patch_48">
    <path clip-path="url(#p2fd8c630d7)" d="M 231.813883 317.72 
L 234.733249 317.72 
L 234.733249 305.893023 
L 231.813883 305.893023 
z
" style="fill:#1f77b4;"/>
   </g>
   <g id="patch_49">
    <path clip-path="url(#p2fd8c630d7)" d="M 235.463091 317.72 
L 238.382457 317.72 
L 238.382457 307.212867 
L 235.463091 307.212867 
z
" style="fill:#1f77b4;"/>
   </g>
   <g id="patch_50">
    <path clip-path="url(#p2fd8c630d7)" d="M 239.112298 317.72 
L 242.031664 317.72 
L 242.031664 307.271854 
L 239.112298 307.271854 
z
" style="fill:#1f77b4;"/>
   </g>
   <g id="patch_51">
    <path clip-path="url(#p2fd8c630d7)" d="M 242.761506 317.72 
L 245.680872 317.72 
L 245.680872 307.611032 
L 242.761506 307.611032 
z
" style="fill:#1f77b4;"/>
   </g>
   <g id="patch_52">
    <path clip-path="url(#p2fd8c630d7)" d="M 246.410713 317.72 
L 249.330079 317.72 
L 249.330079 307.640525 
L 246.410713 307.640525 
z
" style="fill:#1f77b4;"/>
   </g>
   <g id="patch_53">
    <path clip-path="url(#p2fd8c630d7)" d="M 250.059921 317.72 
L 252.979287 317.72 
L 252.979287 307.861728 
L 250.059921 307.861728 
z
" style="fill:#1f77b4;"/>
   </g>
   <g id="patch_54">
    <path clip-path="url(#p2fd8c630d7)" d="M 253.709128 317.72 
L 256.628494 317.72 
L 256.628494 308.333628 
L 253.709128 308.333628 
z
" style="fill:#1f77b4;"/>
   </g>
   <g id="patch_55">
    <path clip-path="url(#p2fd8c630d7)" d="M 257.358336 317.72 
L 260.277702 317.72 
L 260.277702 308.916128 
L 257.358336 308.916128 
z
" style="fill:#1f77b4;"/>
   </g>
   <g id="patch_56">
    <path clip-path="url(#p2fd8c630d7)" d="M 261.007543 317.72 
L 263.926909 317.72 
L 263.926909 309.034103 
L 261.007543 309.034103 
z
" style="fill:#1f77b4;"/>
   </g>
   <g id="patch_57">
    <path clip-path="url(#p2fd8c630d7)" d="M 264.656751 317.72 
L 267.576117 317.72 
L 267.576117 309.04885 
L 264.656751 309.04885 
z
" style="fill:#1f77b4;"/>
   </g>
   <g id="patch_58">
    <path clip-path="url(#p2fd8c630d7)" d="M 268.305958 317.72 
L 271.225324 317.72 
L 271.225324 309.04885 
L 268.305958 309.04885 
z
" style="fill:#1f77b4;"/>
   </g>
   <g id="patch_59">
    <path clip-path="url(#p2fd8c630d7)" d="M 271.955166 317.72 
L 274.874532 317.72 
L 274.874532 309.277426 
L 271.955166 309.277426 
z
" style="fill:#1f77b4;"/>
   </g>
   <g id="patch_60">
    <path clip-path="url(#p2fd8c630d7)" d="M 275.604373 317.72 
L 278.523739 317.72 
L 278.523739 309.483882 
L 275.604373 309.483882 
z
" style="fill:#1f77b4;"/>
   </g>
   <g id="patch_61">
    <path clip-path="url(#p2fd8c630d7)" d="M 279.253581 317.72 
L 282.172947 317.72 
L 282.172947 309.528123 
L 279.253581 309.528123 
z
" style="fill:#1f77b4;"/>
   </g>
   <g id="patch_62">
    <path clip-path="url(#p2fd8c630d7)" d="M 282.902788 317.72 
L 285.822154 317.72 
L 285.822154 309.535496 
L 282.902788 309.535496 
z
" style="fill:#1f77b4;"/>
   </g>
   <g id="patch_63">
    <path clip-path="url(#p2fd8c630d7)" d="M 286.551996 317.72 
L 289.471362 317.72 
L 289.471362 309.54287 
L 286.551996 309.54287 
z
" style="fill:#1f77b4;"/>
   </g>
   <g id="patch_64">
    <path clip-path="url(#p2fd8c630d7)" d="M 290.201203 317.72 
L 293.120569 317.72 
L 293.120569 309.690338 
L 290.201203 309.690338 
z
" style="fill:#1f77b4;"/>
   </g>
   <g id="patch_65">
    <path clip-path="url(#p2fd8c630d7)" d="M 293.850411 317.72 
L 296.769777 317.72 
L 296.769777 309.749326 
L 293.850411 309.749326 
z
" style="fill:#1f77b4;"/>
   </g>
   <g id="patch_66">
    <path clip-path="url(#p2fd8c630d7)" d="M 297.499618 317.72 
L 300.418984 317.72 
L 300.418984 309.896794 
L 297.499618 309.896794 
z
" style="fill:#1f77b4;"/>
   </g>
   <g id="patch_67">
    <path clip-path="url(#p2fd8c630d7)" d="M 301.148826 317.72 
L 304.068192 317.72 
L 304.068192 309.911541 
L 301.148826 309.911541 
z
" style="fill:#1f77b4;"/>
   </g>
   <g id="patch_68">
    <path clip-path="url(#p2fd8c630d7)" d="M 304.798033 317.72 
L 307.717399 317.72 
L 307.717399 309.948408 
L 304.798033 309.948408 
z
" style="fill:#1f77b4;"/>
   </g>
   <g id="patch_69">
    <path clip-path="url(#p2fd8c630d7)" d="M 308.447241 317.72 
L 311.366607 317.72 
L 311.366607 310.036889 
L 308.447241 310.036889 
z
" style="fill:#1f77b4;"/>
   </g>
   <g id="patch_70">
    <path clip-path="url(#p2fd8c630d7)" d="M 312.096448 317.72 
L 315.015814 317.72 
L 315.015814 310.435054 
L 312.096448 310.435054 
z
" style="fill:#1f77b4;"/>
   </g>
   <g id="patch_71">
    <path clip-path="url(#p2fd8c630d7)" d="M 315.745656 317.72 
L 318.665022 317.72 
L 318.665022 310.464548 
L 315.745656 310.464548 
z
" style="fill:#1f77b4;"/>
   </g>
   <g id="patch_72">
    <path clip-path="url(#p2fd8c630d7)" d="M 319.394863 317.72 
L 322.314229 317.72 
L 322.314229 310.538282 
L 319.394863 310.538282 
z
" style="fill:#1f77b4;"/>
   </g>
   <g id="patch_73">
    <path clip-path="url(#p2fd8c630d7)" d="M 323.044071 317.72 
L 325.963437 317.72 
L 325.963437 310.582523 
L 323.044071 310.582523 
z
" style="fill:#1f77b4;"/>
   </g>
   <g id="patch_74">
    <path clip-path="url(#p2fd8c630d7)" d="M 326.693278 317.72 
L 329.612644 317.72 
L 329.612644 310.589896 
L 326.693278 310.589896 
z
" style="fill:#1f77b4;"/>
   </g>
   <g id="patch_75">
    <path clip-path="url(#p2fd8c630d7)" d="M 330.342486 317.72 
L 333.261852 317.72 
L 333.261852 310.700498 
L 330.342486 310.700498 
z
" style="fill:#1f77b4;"/>
   </g>
   <g id="patch_76">
    <path clip-path="url(#p2fd8c630d7)" d="M 333.991693 317.72 
L 336.911059 317.72 
L 336.911059 310.870086 
L 333.991693 310.870086 
z
" style="fill:#1f77b4;"/>
   </g>
   <g id="patch_77">
    <path clip-path="url(#p2fd8c630d7)" d="M 337.640901 317.72 
L 340.560267 317.72 
L 340.560267 310.870086 
L 337.640901 310.870086 
z
" style="fill:#1f77b4;"/>
   </g>
   <g id="patch_78">
    <path clip-path="url(#p2fd8c630d7)" d="M 341.290108 317.72 
L 344.209474 317.72 
L 344.209474 311.032302 
L 341.290108 311.032302 
z
" style="fill:#1f77b4;"/>
   </g>
   <g id="patch_79">
    <path clip-path="url(#p2fd8c630d7)" d="M 344.939316 317.72 
L 347.858682 317.72 
L 347.858682 311.076542 
L 344.939316 311.076542 
z
" style="fill:#1f77b4;"/>
   </g>
   <g id="patch_80">
    <path clip-path="url(#p2fd8c630d7)" d="M 348.588523 317.72 
L 351.507889 317.72 
L 351.507889 311.187144 
L 348.588523 311.187144 
z
" style="fill:#1f77b4;"/>
   </g>
   <g id="patch_81">
    <path clip-path="url(#p2fd8c630d7)" d="M 352.237731 317.72 
L 355.157097 317.72 
L 355.157097 311.194517 
L 352.237731 311.194517 
z
" style="fill:#1f77b4;"/>
   </g>
   <g id="patch_82">
    <path clip-path="url(#p2fd8c630d7)" d="M 355.886938 317.72 
L 358.806304 317.72 
L 358.806304 311.209264 
L 355.886938 311.209264 
z
" style="fill:#1f77b4;"/>
   </g>
   <g id="patch_83">
    <path clip-path="url(#p2fd8c630d7)" d="M 359.536146 317.72 
L 362.455512 317.72 
L 362.455512 311.216637 
L 359.536146 311.216637 
z
" style="fill:#1f77b4;"/>
   </g>
   <g id="patch_84">
    <path clip-path="url(#p2fd8c630d7)" d="M 363.185353 317.72 
L 366.104719 317.72 
L 366.104719 311.305119 
L 363.185353 311.305119 
z
" style="fill:#1f77b4;"/>
   </g>
   <g id="patch_85">
    <path clip-path="url(#p2fd8c630d7)" d="M 366.834561 317.72 
L 369.753927 317.72 
L 369.753927 311.555815 
L 366.834561 311.555815 
z
" style="fill:#1f77b4;"/>
   </g>
   <g id="patch_86">
    <path clip-path="url(#p2fd8c630d7)" d="M 370.483768 317.72 
L 373.403134 317.72 
L 373.403134 311.644296 
L 370.483768 311.644296 
z
" style="fill:#1f77b4;"/>
   </g>
   <g id="patch_87">
    <path clip-path="url(#p2fd8c630d7)" d="M 374.132976 317.72 
L 377.052342 317.72 
L 377.052342 311.813885 
L 374.132976 311.813885 
z
" style="fill:#1f77b4;"/>
   </g>
   <g id="patch_88">
    <path clip-path="url(#p2fd8c630d7)" d="M 377.782183 317.72 
L 380.701549 317.72 
L 380.701549 311.821258 
L 377.782183 311.821258 
z
" style="fill:#1f77b4;"/>
   </g>
   <g id="patch_89">
    <path clip-path="url(#p2fd8c630d7)" d="M 381.431391 317.72 
L 384.350757 317.72 
L 384.350757 311.946607 
L 381.431391 311.946607 
z
" style="fill:#1f77b4;"/>
   </g>
   <g id="patch_90">
    <path clip-path="url(#p2fd8c630d7)" d="M 385.080598 317.72 
L 387.999964 317.72 
L 387.999964 312.064582 
L 385.080598 312.064582 
z
" style="fill:#1f77b4;"/>
   </g>
   <g id="patch_91">
    <path clip-path="url(#p2fd8c630d7)" d="M 388.729806 317.72 
L 391.649172 317.72 
L 391.649172 312.248917 
L 388.729806 312.248917 
z
" style="fill:#1f77b4;"/>
   </g>
   <g id="patch_92">
    <path clip-path="url(#p2fd8c630d7)" d="M 392.379013 317.72 
L 395.298379 317.72 
L 395.298379 312.256291 
L 392.379013 312.256291 
z
" style="fill:#1f77b4;"/>
   </g>
   <g id="patch_93">
    <path clip-path="url(#p2fd8c630d7)" d="M 396.028221 317.72 
L 398.947587 317.72 
L 398.947587 312.271038 
L 396.028221 312.271038 
z
" style="fill:#1f77b4;"/>
   </g>
   <g id="patch_94">
    <path clip-path="url(#p2fd8c630d7)" d="M 399.677428 317.72 
L 402.596794 317.72 
L 402.596794 312.425879 
L 399.677428 312.425879 
z
" style="fill:#1f77b4;"/>
   </g>
   <g id="patch_95">
    <path clip-path="url(#p2fd8c630d7)" d="M 403.326636 317.72 
L 406.246002 317.72 
L 406.246002 312.448 
L 403.326636 312.448 
z
" style="fill:#1f77b4;"/>
   </g>
   <g id="patch_96">
    <path clip-path="url(#p2fd8c630d7)" d="M 406.975844 317.72 
L 409.89521 317.72 
L 409.89521 312.484867 
L 406.975844 312.484867 
z
" style="fill:#1f77b4;"/>
   </g>
   <g id="patch_97">
    <path clip-path="url(#p2fd8c630d7)" d="M 410.625051 317.72 
L 413.544417 317.72 
L 413.544417 312.499614 
L 410.625051 312.499614 
z
" style="fill:#1f77b4;"/>
   </g>
   <g id="patch_98">
    <path clip-path="url(#p2fd8c630d7)" d="M 414.274259 317.72 
L 417.193625 317.72 
L 417.193625 312.514361 
L 414.274259 312.514361 
z
" style="fill:#1f77b4;"/>
   </g>
   <g id="patch_99">
    <path clip-path="url(#p2fd8c630d7)" d="M 417.923466 317.72 
L 420.842832 317.72 
L 420.842832 312.521734 
L 417.923466 312.521734 
z
" style="fill:#1f77b4;"/>
   </g>
   <g id="patch_100">
    <path clip-path="url(#p2fd8c630d7)" d="M 421.572674 317.72 
L 424.49204 317.72 
L 424.49204 312.580721 
L 421.572674 312.580721 
z
" style="fill:#1f77b4;"/>
   </g>
   <g id="patch_101">
    <path clip-path="url(#p2fd8c630d7)" d="M 425.221881 317.72 
L 428.141247 317.72 
L 428.141247 312.580721 
L 425.221881 312.580721 
z
" style="fill:#1f77b4;"/>
   </g>
   <g id="patch_102">
    <path clip-path="url(#p2fd8c630d7)" d="M 428.871089 317.72 
L 431.790455 317.72 
L 431.790455 312.602842 
L 428.871089 312.602842 
z
" style="fill:#1f77b4;"/>
   </g>
   <g id="matplotlib.axis_1">
    <g id="xtick_1">
     <g id="line2d_1">
      <defs>
       <path d="M 0 0 
L 0 3.5 
" id="m4d925c6aee" style="stroke:#000000;stroke-width:0.8;"/>
      </defs>
      <g>
       <use style="stroke:#000000;stroke-width:0.8;" x="69.059228" xlink:href="#m4d925c6aee" y="317.72"/>
      </g>
     </g>
     <g id="text_1">
      <!-- 0 -->
      <defs>
       <path d="M 31.78125 66.40625 
Q 24.171875 66.40625 20.328125 58.90625 
Q 16.5 51.421875 16.5 36.375 
Q 16.5 21.390625 20.328125 13.890625 
Q 24.171875 6.390625 31.78125 6.390625 
Q 39.453125 6.390625 43.28125 13.890625 
Q 47.125 21.390625 47.125 36.375 
Q 47.125 51.421875 43.28125 58.90625 
Q 39.453125 66.40625 31.78125 66.40625 
z
M 31.78125 74.21875 
Q 44.046875 74.21875 50.515625 64.515625 
Q 56.984375 54.828125 56.984375 36.375 
Q 56.984375 17.96875 50.515625 8.265625 
Q 44.046875 -1.421875 31.78125 -1.421875 
Q 19.53125 -1.421875 13.0625 8.265625 
Q 6.59375 17.96875 6.59375 36.375 
Q 6.59375 54.828125 13.0625 64.515625 
Q 19.53125 74.21875 31.78125 74.21875 
z
" id="DejaVuSans-48"/>
      </defs>
      <g transform="translate(65.877978 332.318437)scale(0.1 -0.1)">
       <use xlink:href="#DejaVuSans-48"/>
      </g>
     </g>
    </g>
    <g id="xtick_2">
     <g id="line2d_2">
      <g>
       <use style="stroke:#000000;stroke-width:0.8;" x="142.043379" xlink:href="#m4d925c6aee" y="317.72"/>
      </g>
     </g>
     <g id="text_2">
      <!-- 20 -->
      <defs>
       <path d="M 19.1875 8.296875 
L 53.609375 8.296875 
L 53.609375 0 
L 7.328125 0 
L 7.328125 8.296875 
Q 12.9375 14.109375 22.625 23.890625 
Q 32.328125 33.6875 34.8125 36.53125 
Q 39.546875 41.84375 41.421875 45.53125 
Q 43.3125 49.21875 43.3125 52.78125 
Q 43.3125 58.59375 39.234375 62.25 
Q 35.15625 65.921875 28.609375 65.921875 
Q 23.96875 65.921875 18.8125 64.3125 
Q 13.671875 62.703125 7.8125 59.421875 
L 7.8125 69.390625 
Q 13.765625 71.78125 18.9375 73 
Q 24.125 74.21875 28.421875 74.21875 
Q 39.75 74.21875 46.484375 68.546875 
Q 53.21875 62.890625 53.21875 53.421875 
Q 53.21875 48.921875 51.53125 44.890625 
Q 49.859375 40.875 45.40625 35.40625 
Q 44.1875 33.984375 37.640625 27.21875 
Q 31.109375 20.453125 19.1875 8.296875 
z
" id="DejaVuSans-50"/>
      </defs>
      <g transform="translate(135.680879 332.318437)scale(0.1 -0.1)">
       <use xlink:href="#DejaVuSans-50"/>
       <use x="63.623047" xlink:href="#DejaVuSans-48"/>
      </g>
     </g>
    </g>
    <g id="xtick_3">
     <g id="line2d_3">
      <g>
       <use style="stroke:#000000;stroke-width:0.8;" x="215.027529" xlink:href="#m4d925c6aee" y="317.72"/>
      </g>
     </g>
     <g id="text_3">
      <!-- 40 -->
      <defs>
       <path d="M 37.796875 64.3125 
L 12.890625 25.390625 
L 37.796875 25.390625 
z
M 35.203125 72.90625 
L 47.609375 72.90625 
L 47.609375 25.390625 
L 58.015625 25.390625 
L 58.015625 17.1875 
L 47.609375 17.1875 
L 47.609375 0 
L 37.796875 0 
L 37.796875 17.1875 
L 4.890625 17.1875 
L 4.890625 26.703125 
z
" id="DejaVuSans-52"/>
      </defs>
      <g transform="translate(208.665029 332.318437)scale(0.1 -0.1)">
       <use xlink:href="#DejaVuSans-52"/>
       <use x="63.623047" xlink:href="#DejaVuSans-48"/>
      </g>
     </g>
    </g>
    <g id="xtick_4">
     <g id="line2d_4">
      <g>
       <use style="stroke:#000000;stroke-width:0.8;" x="288.011679" xlink:href="#m4d925c6aee" y="317.72"/>
      </g>
     </g>
     <g id="text_4">
      <!-- 60 -->
      <defs>
       <path d="M 33.015625 40.375 
Q 26.375 40.375 22.484375 35.828125 
Q 18.609375 31.296875 18.609375 23.390625 
Q 18.609375 15.53125 22.484375 10.953125 
Q 26.375 6.390625 33.015625 6.390625 
Q 39.65625 6.390625 43.53125 10.953125 
Q 47.40625 15.53125 47.40625 23.390625 
Q 47.40625 31.296875 43.53125 35.828125 
Q 39.65625 40.375 33.015625 40.375 
z
M 52.59375 71.296875 
L 52.59375 62.3125 
Q 48.875 64.0625 45.09375 64.984375 
Q 41.3125 65.921875 37.59375 65.921875 
Q 27.828125 65.921875 22.671875 59.328125 
Q 17.53125 52.734375 16.796875 39.40625 
Q 19.671875 43.65625 24.015625 45.921875 
Q 28.375 48.1875 33.59375 48.1875 
Q 44.578125 48.1875 50.953125 41.515625 
Q 57.328125 34.859375 57.328125 23.390625 
Q 57.328125 12.15625 50.6875 5.359375 
Q 44.046875 -1.421875 33.015625 -1.421875 
Q 20.359375 -1.421875 13.671875 8.265625 
Q 6.984375 17.96875 6.984375 36.375 
Q 6.984375 53.65625 15.1875 63.9375 
Q 23.390625 74.21875 37.203125 74.21875 
Q 40.921875 74.21875 44.703125 73.484375 
Q 48.484375 72.75 52.59375 71.296875 
z
" id="DejaVuSans-54"/>
      </defs>
      <g transform="translate(281.649179 332.318437)scale(0.1 -0.1)">
       <use xlink:href="#DejaVuSans-54"/>
       <use x="63.623047" xlink:href="#DejaVuSans-48"/>
      </g>
     </g>
    </g>
    <g id="xtick_5">
     <g id="line2d_5">
      <g>
       <use style="stroke:#000000;stroke-width:0.8;" x="360.995829" xlink:href="#m4d925c6aee" y="317.72"/>
      </g>
     </g>
     <g id="text_5">
      <!-- 80 -->
      <defs>
       <path d="M 31.78125 34.625 
Q 24.75 34.625 20.71875 30.859375 
Q 16.703125 27.09375 16.703125 20.515625 
Q 16.703125 13.921875 20.71875 10.15625 
Q 24.75 6.390625 31.78125 6.390625 
Q 38.8125 6.390625 42.859375 10.171875 
Q 46.921875 13.96875 46.921875 20.515625 
Q 46.921875 27.09375 42.890625 30.859375 
Q 38.875 34.625 31.78125 34.625 
z
M 21.921875 38.8125 
Q 15.578125 40.375 12.03125 44.71875 
Q 8.5 49.078125 8.5 55.328125 
Q 8.5 64.0625 14.71875 69.140625 
Q 20.953125 74.21875 31.78125 74.21875 
Q 42.671875 74.21875 48.875 69.140625 
Q 55.078125 64.0625 55.078125 55.328125 
Q 55.078125 49.078125 51.53125 44.71875 
Q 48 40.375 41.703125 38.8125 
Q 48.828125 37.15625 52.796875 32.3125 
Q 56.78125 27.484375 56.78125 20.515625 
Q 56.78125 9.90625 50.3125 4.234375 
Q 43.84375 -1.421875 31.78125 -1.421875 
Q 19.734375 -1.421875 13.25 4.234375 
Q 6.78125 9.90625 6.78125 20.515625 
Q 6.78125 27.484375 10.78125 32.3125 
Q 14.796875 37.15625 21.921875 38.8125 
z
M 18.3125 54.390625 
Q 18.3125 48.734375 21.84375 45.5625 
Q 25.390625 42.390625 31.78125 42.390625 
Q 38.140625 42.390625 41.71875 45.5625 
Q 45.3125 48.734375 45.3125 54.390625 
Q 45.3125 60.0625 41.71875 63.234375 
Q 38.140625 66.40625 31.78125 66.40625 
Q 25.390625 66.40625 21.84375 63.234375 
Q 18.3125 60.0625 18.3125 54.390625 
z
" id="DejaVuSans-56"/>
      </defs>
      <g transform="translate(354.633329 332.318437)scale(0.1 -0.1)">
       <use xlink:href="#DejaVuSans-56"/>
       <use x="63.623047" xlink:href="#DejaVuSans-48"/>
      </g>
     </g>
    </g>
    <g id="xtick_6">
     <g id="line2d_6">
      <g>
       <use style="stroke:#000000;stroke-width:0.8;" x="433.979979" xlink:href="#m4d925c6aee" y="317.72"/>
      </g>
     </g>
     <g id="text_6">
      <!-- 100 -->
      <defs>
       <path d="M 12.40625 8.296875 
L 28.515625 8.296875 
L 28.515625 63.921875 
L 10.984375 60.40625 
L 10.984375 69.390625 
L 28.421875 72.90625 
L 38.28125 72.90625 
L 38.28125 8.296875 
L 54.390625 8.296875 
L 54.390625 0 
L 12.40625 0 
z
" id="DejaVuSans-49"/>
      </defs>
      <g transform="translate(424.436229 332.318437)scale(0.1 -0.1)">
       <use xlink:href="#DejaVuSans-49"/>
       <use x="63.623047" xlink:href="#DejaVuSans-48"/>
       <use x="127.246094" xlink:href="#DejaVuSans-48"/>
      </g>
     </g>
    </g>
   </g>
   <g id="matplotlib.axis_2">
    <g id="ytick_1">
     <g id="line2d_7">
      <defs>
       <path d="M 0 0 
L -3.5 0 
" id="m500674800a" style="stroke:#000000;stroke-width:0.8;"/>
      </defs>
      <g>
       <use style="stroke:#000000;stroke-width:0.8;" x="49.39" xlink:href="#m500674800a" y="317.72"/>
      </g>
     </g>
     <g id="text_7">
      <!-- 0 -->
      <g transform="translate(36.0275 321.519219)scale(0.1 -0.1)">
       <use xlink:href="#DejaVuSans-48"/>
      </g>
     </g>
    </g>
    <g id="ytick_2">
     <g id="line2d_8">
      <g>
       <use style="stroke:#000000;stroke-width:0.8;" x="49.39" xlink:href="#m500674800a" y="280.852866"/>
      </g>
     </g>
     <g id="text_8">
      <!-- 5000 -->
      <defs>
       <path d="M 10.796875 72.90625 
L 49.515625 72.90625 
L 49.515625 64.59375 
L 19.828125 64.59375 
L 19.828125 46.734375 
Q 21.96875 47.46875 24.109375 47.828125 
Q 26.265625 48.1875 28.421875 48.1875 
Q 40.625 48.1875 47.75 41.5 
Q 54.890625 34.8125 54.890625 23.390625 
Q 54.890625 11.625 47.5625 5.09375 
Q 40.234375 -1.421875 26.90625 -1.421875 
Q 22.3125 -1.421875 17.546875 -0.640625 
Q 12.796875 0.140625 7.71875 1.703125 
L 7.71875 11.625 
Q 12.109375 9.234375 16.796875 8.0625 
Q 21.484375 6.890625 26.703125 6.890625 
Q 35.15625 6.890625 40.078125 11.328125 
Q 45.015625 15.765625 45.015625 23.390625 
Q 45.015625 31 40.078125 35.4375 
Q 35.15625 39.890625 26.703125 39.890625 
Q 22.75 39.890625 18.8125 39.015625 
Q 14.890625 38.140625 10.796875 36.28125 
z
" id="DejaVuSans-53"/>
      </defs>
      <g transform="translate(16.94 284.652084)scale(0.1 -0.1)">
       <use xlink:href="#DejaVuSans-53"/>
       <use x="63.623047" xlink:href="#DejaVuSans-48"/>
       <use x="127.246094" xlink:href="#DejaVuSans-48"/>
       <use x="190.869141" xlink:href="#DejaVuSans-48"/>
      </g>
     </g>
    </g>
    <g id="ytick_3">
     <g id="line2d_9">
      <g>
       <use style="stroke:#000000;stroke-width:0.8;" x="49.39" xlink:href="#m500674800a" y="243.985731"/>
      </g>
     </g>
     <g id="text_9">
      <!-- 10000 -->
      <g transform="translate(10.5775 247.78495)scale(0.1 -0.1)">
       <use xlink:href="#DejaVuSans-49"/>
       <use x="63.623047" xlink:href="#DejaVuSans-48"/>
       <use x="127.246094" xlink:href="#DejaVuSans-48"/>
       <use x="190.869141" xlink:href="#DejaVuSans-48"/>
       <use x="254.492188" xlink:href="#DejaVuSans-48"/>
      </g>
     </g>
    </g>
    <g id="ytick_4">
     <g id="line2d_10">
      <g>
       <use style="stroke:#000000;stroke-width:0.8;" x="49.39" xlink:href="#m500674800a" y="207.118597"/>
      </g>
     </g>
     <g id="text_10">
      <!-- 15000 -->
      <g transform="translate(10.5775 210.917816)scale(0.1 -0.1)">
       <use xlink:href="#DejaVuSans-49"/>
       <use x="63.623047" xlink:href="#DejaVuSans-53"/>
       <use x="127.246094" xlink:href="#DejaVuSans-48"/>
       <use x="190.869141" xlink:href="#DejaVuSans-48"/>
       <use x="254.492188" xlink:href="#DejaVuSans-48"/>
      </g>
     </g>
    </g>
    <g id="ytick_5">
     <g id="line2d_11">
      <g>
       <use style="stroke:#000000;stroke-width:0.8;" x="49.39" xlink:href="#m500674800a" y="170.251462"/>
      </g>
     </g>
     <g id="text_11">
      <!-- 20000 -->
      <g transform="translate(10.5775 174.050681)scale(0.1 -0.1)">
       <use xlink:href="#DejaVuSans-50"/>
       <use x="63.623047" xlink:href="#DejaVuSans-48"/>
       <use x="127.246094" xlink:href="#DejaVuSans-48"/>
       <use x="190.869141" xlink:href="#DejaVuSans-48"/>
       <use x="254.492188" xlink:href="#DejaVuSans-48"/>
      </g>
     </g>
    </g>
    <g id="ytick_6">
     <g id="line2d_12">
      <g>
       <use style="stroke:#000000;stroke-width:0.8;" x="49.39" xlink:href="#m500674800a" y="133.384328"/>
      </g>
     </g>
     <g id="text_12">
      <!-- 25000 -->
      <g transform="translate(10.5775 137.183547)scale(0.1 -0.1)">
       <use xlink:href="#DejaVuSans-50"/>
       <use x="63.623047" xlink:href="#DejaVuSans-53"/>
       <use x="127.246094" xlink:href="#DejaVuSans-48"/>
       <use x="190.869141" xlink:href="#DejaVuSans-48"/>
       <use x="254.492188" xlink:href="#DejaVuSans-48"/>
      </g>
     </g>
    </g>
    <g id="ytick_7">
     <g id="line2d_13">
      <g>
       <use style="stroke:#000000;stroke-width:0.8;" x="49.39" xlink:href="#m500674800a" y="96.517194"/>
      </g>
     </g>
     <g id="text_13">
      <!-- 30000 -->
      <defs>
       <path d="M 40.578125 39.3125 
Q 47.65625 37.796875 51.625 33 
Q 55.609375 28.21875 55.609375 21.1875 
Q 55.609375 10.40625 48.1875 4.484375 
Q 40.765625 -1.421875 27.09375 -1.421875 
Q 22.515625 -1.421875 17.65625 -0.515625 
Q 12.796875 0.390625 7.625 2.203125 
L 7.625 11.71875 
Q 11.71875 9.328125 16.59375 8.109375 
Q 21.484375 6.890625 26.8125 6.890625 
Q 36.078125 6.890625 40.9375 10.546875 
Q 45.796875 14.203125 45.796875 21.1875 
Q 45.796875 27.640625 41.28125 31.265625 
Q 36.765625 34.90625 28.71875 34.90625 
L 20.21875 34.90625 
L 20.21875 43.015625 
L 29.109375 43.015625 
Q 36.375 43.015625 40.234375 45.921875 
Q 44.09375 48.828125 44.09375 54.296875 
Q 44.09375 59.90625 40.109375 62.90625 
Q 36.140625 65.921875 28.71875 65.921875 
Q 24.65625 65.921875 20.015625 65.03125 
Q 15.375 64.15625 9.8125 62.3125 
L 9.8125 71.09375 
Q 15.4375 72.65625 20.34375 73.4375 
Q 25.25 74.21875 29.59375 74.21875 
Q 40.828125 74.21875 47.359375 69.109375 
Q 53.90625 64.015625 53.90625 55.328125 
Q 53.90625 49.265625 50.4375 45.09375 
Q 46.96875 40.921875 40.578125 39.3125 
z
" id="DejaVuSans-51"/>
      </defs>
      <g transform="translate(10.5775 100.316412)scale(0.1 -0.1)">
       <use xlink:href="#DejaVuSans-51"/>
       <use x="63.623047" xlink:href="#DejaVuSans-48"/>
       <use x="127.246094" xlink:href="#DejaVuSans-48"/>
       <use x="190.869141" xlink:href="#DejaVuSans-48"/>
       <use x="254.492188" xlink:href="#DejaVuSans-48"/>
      </g>
     </g>
    </g>
    <g id="ytick_8">
     <g id="line2d_14">
      <g>
       <use style="stroke:#000000;stroke-width:0.8;" x="49.39" xlink:href="#m500674800a" y="59.650059"/>
      </g>
     </g>
     <g id="text_14">
      <!-- 35000 -->
      <g transform="translate(10.5775 63.449278)scale(0.1 -0.1)">
       <use xlink:href="#DejaVuSans-51"/>
       <use x="63.623047" xlink:href="#DejaVuSans-53"/>
       <use x="127.246094" xlink:href="#DejaVuSans-48"/>
       <use x="190.869141" xlink:href="#DejaVuSans-48"/>
       <use x="254.492188" xlink:href="#DejaVuSans-48"/>
      </g>
     </g>
    </g>
    <g id="ytick_9">
     <g id="line2d_15">
      <g>
       <use style="stroke:#000000;stroke-width:0.8;" x="49.39" xlink:href="#m500674800a" y="22.782925"/>
      </g>
     </g>
     <g id="text_15">
      <!-- 40000 -->
      <g transform="translate(10.5775 26.582143)scale(0.1 -0.1)">
       <use xlink:href="#DejaVuSans-52"/>
       <use x="63.623047" xlink:href="#DejaVuSans-48"/>
       <use x="127.246094" xlink:href="#DejaVuSans-48"/>
       <use x="190.869141" xlink:href="#DejaVuSans-48"/>
       <use x="254.492188" xlink:href="#DejaVuSans-48"/>
      </g>
     </g>
    </g>
   </g>
   <g id="patch_103">
    <path d="M 49.39 317.72 
L 49.39 10.8 
" style="fill:none;stroke:#000000;stroke-linecap:square;stroke-linejoin:miter;stroke-width:0.8;"/>
   </g>
   <g id="patch_104">
    <path d="M 450 317.72 
L 450 10.8 
" style="fill:none;stroke:#000000;stroke-linecap:square;stroke-linejoin:miter;stroke-width:0.8;"/>
   </g>
   <g id="patch_105">
    <path d="M 49.39 317.72 
L 450 317.72 
" style="fill:none;stroke:#000000;stroke-linecap:square;stroke-linejoin:miter;stroke-width:0.8;"/>
   </g>
   <g id="patch_106">
    <path d="M 49.39 10.8 
L 450 10.8 
" style="fill:none;stroke:#000000;stroke-linecap:square;stroke-linejoin:miter;stroke-width:0.8;"/>
   </g>
  </g>
 </g>
 <defs>
  <clipPath id="p2fd8c630d7">
   <rect height="306.92" width="400.61" x="49.39" y="10.8"/>
  </clipPath>
 </defs>
</svg>
